<svg width="145" height="34" viewBox="0 0 145 34" fill="none" xmlns="http://www.w3.org/2000/svg">
<g clip-path="url(#clip0)">
<path d="M145 16.7593C145 25.6005 137.98 32.7745 129.321 32.7745C120.662 32.7745 113.636 25.6065 113.636 16.7653C113.636 7.92407 120.657 0.75 129.315 0.75C137.98 0.75 145 7.91806 145 16.7593Z" fill="#26358B"/>
<path d="M119.666 10.6986C119.124 10.7166 118.664 10.2833 118.647 9.72957C118.647 9.72356 118.647 9.71754 118.647 9.71152C118.664 9.16383 119.112 8.7305 119.649 8.74855C119.66 8.74855 119.678 8.74855 119.69 8.74855H138.952C139.489 8.71244 139.949 9.1217 139.984 9.66939C139.984 9.68143 139.984 9.69346 139.984 9.71152C139.978 10.2652 139.53 10.7106 138.988 10.6986C138.982 10.6986 138.976 10.6986 138.97 10.6986H119.666Z" fill="white"/>
<path d="M125.496 26.4852C124.942 26.4732 124.5 25.9977 124.511 25.432C124.523 24.8843 124.959 24.4389 125.496 24.4269H125.555V24.4209H130.742C130.883 24.4209 131.042 24.4088 131.213 24.3968C131.755 24.3787 132.192 23.9334 132.203 23.3737C132.209 22.8139 131.767 22.3625 131.219 22.3565C131.213 22.3565 131.213 22.3565 131.207 22.3565C131.042 22.3385 130.865 22.3325 130.677 22.3325H127.423C127.223 22.3325 127.028 22.3204 126.828 22.3024C126.191 22.2542 125.59 21.9713 125.148 21.4959C124.181 20.4426 124.228 18.7815 125.266 17.7945C125.696 17.3792 126.256 17.1325 126.84 17.0903L126.934 17.0783L127.011 17.0723L127.152 17.0663H127.417H130.777C130.895 17.0663 131.013 17.0542 131.137 17.0422L131.201 17.0362C131.744 17.0181 132.18 16.5727 132.192 16.013C132.198 15.4533 131.755 15.0019 131.207 14.9959C131.201 14.9959 131.201 14.9959 131.196 14.9959C131.025 14.9778 130.848 14.9718 130.665 14.9718H125.502H125.466C124.912 14.9718 124.458 14.5084 124.464 13.9426C124.464 13.3769 124.918 12.9135 125.472 12.9195H125.531H130.665C130.895 12.9195 131.131 12.9315 131.361 12.9556C132.109 13.0098 132.816 13.3468 133.335 13.9005C134.479 15.1463 134.42 17.1084 133.2 18.276C132.693 18.7635 132.038 19.0524 131.343 19.1065L131.26 19.1125L131.013 19.1246H130.671H127.24C127.176 19.1246 127.105 19.1306 127.028 19.1366C126.722 19.1426 126.48 19.3894 126.474 19.7024C126.468 20.0093 126.71 20.2621 127.011 20.2621H127.016C127.093 20.2681 127.17 20.2741 127.24 20.2741L127.27 20.2801H130.671C130.901 20.2801 131.137 20.2922 131.366 20.3162C132.115 20.3704 132.822 20.7075 133.341 21.2612C134.485 22.507 134.426 24.463 133.205 25.6306C132.699 26.1121 132.05 26.407 131.361 26.4612L131.254 26.4672L131.013 26.4792H130.671L125.496 26.4852Z" fill="white"/>
<path d="M6.3128 20.6334L5.61138 21.3496C5.41687 21.5602 5.13984 21.6866 4.85102 21.6866H1.78598C1.49715 21.6866 1.22602 21.5662 1.02561 21.3496L0 20.2963L1.06098 19.2311L1.88028 20.0676C1.93923 20.1278 2.02175 20.1639 2.10427 20.1579H4.54451C4.62703 20.1579 4.70955 20.1278 4.7685 20.0676L4.82744 20.0074C4.88049 19.9473 4.90406 19.875 4.90406 19.7968V17.7324C4.90996 17.6542 4.88049 17.576 4.82744 17.5218L4.49736 17.1848C4.43841 17.1246 4.35589 17.0885 4.27337 17.0945H2.51687V15.5718H4.27337C4.35589 15.5718 4.43841 15.5417 4.49736 15.4815L4.82744 15.1445C4.88049 15.0843 4.90406 15.0121 4.90406 14.9338V13.4292C4.90996 13.351 4.88049 13.2727 4.82744 13.2186L4.7685 13.1584C4.70955 13.0982 4.62703 13.0681 4.54451 13.0681H2.09837C2.01585 13.0681 1.93333 13.0982 1.87439 13.1584L1.06098 13.9949L0 12.9297L1.02561 11.8824C1.22012 11.6718 1.49715 11.5454 1.78598 11.5454H4.85102C5.13984 11.5454 5.41098 11.6658 5.61138 11.8824L6.3128 12.5987C6.50732 12.7912 6.60752 13.0561 6.59573 13.3269V15.0422C6.59573 15.325 6.48374 15.6019 6.28333 15.8005L5.76463 16.3301L6.30102 16.8778C6.49553 17.0644 6.60752 17.3292 6.60163 17.6061V19.8991C6.60752 20.176 6.50732 20.4408 6.3128 20.6334Z" fill="#26358B"/>
<path d="M10.5685 21.6806C10.2973 21.6866 10.0321 21.5783 9.83758 21.3737L9.28941 20.8139C9.08311 20.6093 8.97112 20.3324 8.97701 20.0375V15.969H7.72742V14.4463H8.97701V11.5454H10.6746V14.4463H13.0736V15.969H10.6746V19.8449C10.6746 19.9232 10.704 20.0014 10.763 20.0556L10.7807 20.0676C10.8337 20.1278 10.9103 20.1579 10.987 20.1579H13.0736V21.6806H10.5685Z" fill="#26358B"/>
<path d="M18.0325 21.6806V11.5454H24.6871V13.2787H19.8184V15.7403H24.6871V17.4737H19.8184V19.9533H24.6871V21.6866L18.0325 21.6806Z" fill="#26358B"/>
<path d="M30.9527 21.6807V16.2881C30.9527 16.2098 30.9232 16.1316 30.8643 16.0774L30.7464 15.9571C30.6934 15.8969 30.6167 15.8668 30.5401 15.8668H29.6147C29.5381 15.8668 29.4615 15.9029 29.4084 15.9571L28.2472 17.1427C28.1883 17.1969 28.1529 17.2751 28.1588 17.3533V21.6867H26.4613V15.7103L26.1606 14.4464H27.7698L28.0056 15.4816L28.7188 14.7533C28.9074 14.5547 29.1726 14.4404 29.4497 14.4464H30.9527C31.2298 14.4404 31.4891 14.5487 31.6836 14.7533L32.3379 15.4214C32.5442 15.626 32.6562 15.9029 32.6503 16.1978V21.6867L30.9527 21.6807Z" fill="#26358B"/>
<path d="M35.8239 18.5527V19.8467C35.8239 19.925 35.8534 20.0032 35.9123 20.0574L35.9241 20.0694C35.9771 20.1296 36.0538 20.1597 36.1304 20.1597H38.6767C38.7534 20.1597 38.83 20.1236 38.883 20.0694L39.6257 19.3111L40.6867 20.3944L39.7259 21.3814C39.5373 21.5801 39.2721 21.6944 38.995 21.6824H35.8239C35.5527 21.6944 35.2875 21.5801 35.093 21.3814L34.4387 20.7134C34.2324 20.5088 34.1204 20.2319 34.1263 19.937V16.1995C34.1204 15.9106 34.2324 15.6277 34.4387 15.4231L35.093 14.7551C35.2816 14.5564 35.5468 14.4421 35.8239 14.4481H38.995C39.2721 14.4421 39.5373 14.5504 39.7259 14.7551L40.3802 15.4231C40.5865 15.6277 40.6985 15.9046 40.6926 16.1995V18.5527H35.8239ZM38.995 16.2898C38.995 16.2115 38.9655 16.1333 38.9066 16.0791L38.8889 16.0611C38.8359 16.0009 38.7592 15.9708 38.6826 15.9708H36.1363C36.0597 15.9708 35.983 16.0069 35.93 16.0611L35.9123 16.0731C35.8534 16.1273 35.818 16.2055 35.8239 16.2838V17.1324H38.995V16.2898Z" fill="#26358B"/>
<path d="M46.7047 17.3791V16.2898C46.7047 16.2115 46.6753 16.1333 46.6163 16.0791L46.4984 15.9588C46.4454 15.8986 46.3688 15.8685 46.2921 15.8685H45.5789C45.5023 15.8685 45.4257 15.9046 45.3726 15.9588L44.2055 17.1384C44.1466 17.1926 44.1112 17.2708 44.1171 17.349V21.6824H42.4196V15.712L42.119 14.4481H43.7281L43.9639 15.4833L44.6771 14.7551C44.8657 14.5564 45.131 14.4421 45.408 14.4481H46.5986C46.8757 14.4421 47.135 14.5504 47.3295 14.7551L47.9838 15.4231C48.1901 15.6277 48.3021 15.9046 48.2962 16.1995V17.3851L46.7047 17.3791Z" fill="#26358B"/>
<path d="M55.5927 15.6458V22.8379C55.5986 23.1268 55.4866 23.4097 55.2803 23.6143L54.6261 24.2824C54.4374 24.481 54.1722 24.5953 53.8952 24.5893H50.724C50.447 24.5953 50.1876 24.487 49.9931 24.2824L49.1267 23.3977L50.1523 22.3504L50.7948 23.0065C50.8478 23.0666 50.9244 23.0967 51.0011 23.0967H53.5769C53.6535 23.0967 53.7301 23.0606 53.7832 23.0065L53.795 22.9944C53.8539 22.9402 53.8834 22.862 53.8834 22.7838V20.8097L53.3175 21.3875C53.1407 21.5801 52.8755 21.6944 52.5984 21.6824H50.724C50.4529 21.6944 50.1876 21.5801 49.9931 21.3814L49.3389 20.7134C49.1326 20.5088 49.0206 20.2319 49.0265 19.937V16.1995C49.0206 15.9106 49.1326 15.6277 49.3389 15.4231L49.9931 14.7551C50.1818 14.5564 50.447 14.4421 50.724 14.4481H52.5984C52.8696 14.4421 53.1348 14.5504 53.3293 14.7551L54.0425 15.4833L54.2783 14.4481H55.8285L55.5927 15.6458ZM53.8952 17.349C53.8952 17.2708 53.8657 17.1926 53.8068 17.1384L52.7458 16.0551C52.6927 15.9949 52.6161 15.9648 52.5395 15.9648H51.0364C50.9598 15.9648 50.8832 16.0009 50.8301 16.0551L50.8124 16.0731C50.7535 16.1273 50.7181 16.2055 50.724 16.2838V19.8407C50.724 19.9189 50.7535 19.9972 50.8124 20.0514L50.8301 20.0694C50.8832 20.1296 50.9598 20.1597 51.0364 20.1597H52.5395C52.6161 20.1597 52.6927 20.1236 52.7458 20.0694L53.8068 18.9861C53.8657 18.9319 53.8952 18.8537 53.8952 18.7754V17.349Z" fill="#26358B"/>
<path d="M60.0429 24.5713H58.363L59.0645 21.9291L56.6832 14.4481H58.4397L59.9899 19.7083L61.5519 14.4481H63.2494L60.0429 24.5713Z" fill="#26358B"/>
<path d="M74.3225 21.6806L74.0985 20.3866L73.1437 21.3616C72.9491 21.5662 72.678 21.6806 72.401 21.6806H69.3772C69.0943 21.6806 68.829 21.5662 68.6345 21.3616L67.4144 20.1158C67.214 19.9172 67.102 19.6403 67.102 19.3574V13.8686C67.102 13.5797 67.214 13.3088 67.4144 13.1102L68.6345 11.8644C68.829 11.6598 69.1002 11.5454 69.3772 11.5454H73.2498C73.5327 11.5454 73.7979 11.6598 73.9924 11.8644L75.2892 13.1885L74.0809 14.4042L73.067 13.369C73.014 13.3088 72.9374 13.2727 72.8607 13.2787H69.7662C69.6837 13.2727 69.6071 13.3088 69.554 13.369L68.9764 13.9588C68.9174 14.019 68.888 14.0912 68.888 14.1755V19.0565C68.888 19.1348 68.9233 19.213 68.9764 19.2672L69.5599 19.863C69.613 19.9232 69.6896 19.9593 69.7662 19.9533H72.118C72.1947 19.9533 72.2713 19.9232 72.3243 19.863L73.68 18.4787C73.739 18.4246 73.7743 18.3463 73.7685 18.2681V17.4737H71.3105V15.7403H75.5544V19.6644L75.9435 21.6866H74.3225V21.6806Z" fill="#26358B"/>
<path d="M81.7199 17.3834V16.2881C81.7199 16.2098 81.6904 16.1316 81.6315 16.0774L81.5136 15.9571C81.4605 15.8969 81.3839 15.8668 81.3073 15.8668H80.5941C80.5174 15.8668 80.4408 15.9029 80.3878 15.9571L79.2266 17.1427C79.1677 17.1969 79.1323 17.2751 79.1382 17.3533V21.6867H77.4406V15.7103L77.14 14.4464H78.7492L78.9849 15.4816L79.6981 14.7533C79.8868 14.5547 80.152 14.4404 80.429 14.4464H81.6197C81.8908 14.4404 82.1561 14.5487 82.3506 14.7533L83.0048 15.4214C83.2111 15.626 83.3231 15.9029 83.3172 16.1978V17.3834H81.7199Z" fill="#26358B"/>
<path d="M90.3002 20.708L89.646 21.376C89.4574 21.5747 89.1921 21.689 88.9151 21.683H85.7439C85.4669 21.689 85.2075 21.5807 85.013 21.376L84.3588 20.708C84.1525 20.5034 84.0405 20.2265 84.0464 19.9316V16.2001C84.0405 15.9112 84.1525 15.6284 84.3588 15.4237L85.013 14.7557C85.2017 14.5571 85.4669 14.4427 85.7439 14.4487H88.9151C89.1862 14.4427 89.4515 14.551 89.646 14.7557L90.3002 15.4237C90.5065 15.6284 90.6185 15.9052 90.6126 16.2001V19.9075C90.6126 20.2084 90.5006 20.4973 90.3002 20.708ZM88.9151 16.2904C88.9151 16.2122 88.8856 16.1339 88.8267 16.0797L88.809 16.0617C88.7559 16.0015 88.6793 15.9714 88.6027 15.9714H86.0563C85.9797 15.9714 85.9031 16.0075 85.85 16.0617L85.8323 16.0737C85.7734 16.1279 85.738 16.2061 85.7439 16.2844V19.8413C85.7439 19.9196 85.7734 19.9978 85.8323 20.052L85.8441 20.07C85.9031 20.1302 85.9738 20.1603 86.0563 20.1663H88.6027C88.6793 20.1663 88.7559 20.1302 88.809 20.076L88.8208 20.064C88.8797 20.0098 88.9092 19.9316 88.9092 19.8534V16.2904H88.9151Z" fill="#26358B"/>
<path d="M96.9962 21.6824L96.7604 20.6472L96.0472 21.3755C95.8586 21.5741 95.5933 21.6884 95.3163 21.6824H93.8133C93.5362 21.6884 93.2769 21.5801 93.0824 21.3755L92.4281 20.7074C92.2218 20.5028 92.1098 20.2259 92.1157 19.931V14.4421H93.8133V19.8408C93.8133 19.919 93.8427 19.9972 93.9017 20.0514L94.0196 20.1718C94.0726 20.232 94.1492 20.262 94.2259 20.262H95.1513C95.2279 20.262 95.3045 20.2259 95.3576 20.1718L96.5187 18.9861C96.5777 18.932 96.6131 18.8537 96.6072 18.7755V14.4421H98.3047V20.4185L98.6053 21.6824H96.9962Z" fill="#26358B"/>
<path d="M106.462 20.7074L105.808 21.3755C105.62 21.5741 105.354 21.6884 105.077 21.6824H103.203C102.926 21.6884 102.666 21.5801 102.472 21.3755L101.906 20.7977V24.5833H100.209V15.6458L99.9728 14.4421H101.523L101.759 15.4773L102.472 14.7491C102.661 14.5505 102.926 14.4361 103.203 14.4421H105.077C105.354 14.4361 105.614 14.5444 105.808 14.7491L106.462 15.4171C106.669 15.6218 106.781 15.8986 106.775 16.1935V19.931C106.781 20.2259 106.669 20.5088 106.462 20.7074ZM105.083 16.2898C105.083 16.2116 105.054 16.1333 104.995 16.0792L104.983 16.0611C104.93 16.0009 104.853 15.9708 104.777 15.9708H103.274C103.197 15.9708 103.12 16.0069 103.067 16.0611L102.006 17.1444C101.947 17.1986 101.912 17.2769 101.918 17.3551V18.7815C101.918 18.8597 101.947 18.938 102.006 18.9921L103.067 20.0755C103.12 20.1357 103.197 20.1657 103.274 20.1657H104.777C104.853 20.1657 104.93 20.1296 104.983 20.0755L104.995 20.0634C105.054 20.0093 105.089 19.931 105.083 19.8528V16.2898Z" fill="#26358B"/>
</g>
<defs>
<clipPath id="clip0">
<rect width="145" height="32.5" fill="white" transform="translate(0 0.75)"/>
</clipPath>
</defs>
</svg>
